<?xml version="1.0" encoding="utf-8"?>
<!-- Generator: Adobe Illustrator 27.3.1, SVG Export Plug-In . SVG Version: 6.00 Build 0)  -->
<svg version="1.1" id="Layer_1" xmlns="http://www.w3.org/2000/svg" xmlns:xlink="http://www.w3.org/1999/xlink" x="0px" y="0px"
	 viewBox="0 0 16 16" style="enable-background:new 0 0 16 16;" xml:space="preserve">
<style type="text/css">
	.st0{fill:#231F20;}
	.st1{fill:none;stroke:#FFF799;stroke-width:2;}
	.st2{fill:url(#SVGID_1_);}
	.st3{fill:#D4392A;}
</style>
<symbol  id="Thinking_Man" viewBox="-37.5 -52.1 75 104.3">
	<path class="st0" d="M-1.8-34.5l-8.8,13.6c0,0-20.1,7.9-17.8,31.6c2,20.1,38.4,32.4,54.5,6.5c0,0,0.4-2-0.3-2.1
		C25.2,15,41.6,5.3,36.5,3c-4.1-1.9-4.6-1.3-4.6-1.3s3-3.9,2.3-4.8c-0.6-1-14.2,0.9-7.1-3.3c2.7-1.4,9,0.3,7.8-2.3
		c-0.5-1.1-0.9-5.9-0.9-5.9s2.2-3-1.5-4.6c-3.7-1.7-13.3-4.1-13.3-4.1L19-26.1c0,0,0.8-1.5,1-3c0.3-1.5-1.5-3.5-1.5-3.5L17.6-35
		l-9-17.1L-1.8-34.5z"/>
	<path class="st1" d="M-1.9-17.5c0,0,0.3,8.7-0.3,11.8C-2.8-2.6,4.3,2,0.9,4.2c-3.4,2.2-5.3,5.9,3.7,8c9,2.2,13.3,6.2,10.2,9.3
		c-3.1,3.1-18.9,8.8-30.3,0.6c-13.3-9.6-9-27.2-0.6-32.2C-7.8-15-7.5-0.1-1.9-17.5z"/>
	<linearGradient id="SVGID_1_" gradientUnits="userSpaceOnUse" x1="-26.6177" y1="4.4447" x2="14.5798" y2="4.4447">
		<stop  offset="0" style="stop-color:#B7151B"/>
		<stop  offset="2.269557e-02" style="stop-color:#C52229"/>
		<stop  offset="6.340304e-02" style="stop-color:#D7333C"/>
		<stop  offset="0.1053" style="stop-color:#E23D47"/>
		<stop  offset="0.15" style="stop-color:#E6404B"/>
		<stop  offset="0.3" style="stop-color:#E98A7B"/>
		<stop  offset="0.47" style="stop-color:#7C78B8"/>
		<stop  offset="0.6404" style="stop-color:#00B0B0"/>
		<stop  offset="0.79" style="stop-color:#7B76B6"/>
		<stop  offset="1" style="stop-color:#E7322F"/>
	</linearGradient>
	<path class="st2" d="M-1.9-17.5c0,0,0.3,8.7-0.3,11.8C-2.8-2.6,4.3,2,0.9,4.2c-3.4,2.2-5.3,5.9,3.7,8c9,2.2,13.3,6.2,10.2,9.3
		c-3.1,3.1-18.9,8.8-30.3,0.6c-13.3-9.6-9-27.2-0.6-32.2C-7.8-15-7.5-0.1-1.9-17.5z"/>
	<path class="st3" d="M-31.6,48.3c-0.3-0.2-0.4-0.7-0.2-1l11.4-17.7c0.2-0.3,0.7-0.4,1-0.2c0.3,0.2,0.4,0.7,0.2,1L-29,48.9
		C-29.3,49.3-31.3,48.5-31.6,48.3z"/>
	<path class="st3" d="M-5.5,52.1c-0.4,0-0.7-0.4-0.7-0.8l1-15.4c0-0.4,0.4-0.7,0.8-0.7c0.4,0,0.7,0.4,0.7,0.8l0.5,15.7
		C-3.2,52.1-5.1,52.1-5.5,52.1z"/>
	<path class="st3" d="M16,48.7L9,34.6c-0.2-0.4,0-0.8,0.3-1c0.4-0.2,0.8,0,1,0.3l8.2,13.3c0.2,0.4-1.1,1.6-1.5,1.8
		C16.6,49.2,16.2,49.1,16,48.7z"/>
	<path class="st3" d="M31.2,39.9L20.5,29.5c-0.3-0.3-0.3-0.7,0-1c0.3-0.3,0.7-0.3,1,0L33,37.8c0.3,0.3-0.5,1.8-0.7,2.1
		C32,40.1,31.5,40.1,31.2,39.9z"/>
	<path class="st3" d="M-37.2,23.9c-0.2-0.4-0.4-1.9-0.1-2.1l9.1-3.2c0.4-0.2,0.8,0,1,0.3c0.2,0.4,0,0.8-0.3,1l-8.7,4.4
		C-36.6,24.4-37,24.3-37.2,23.9z"/>
</symbol>
<use xlink:href="#Thinking_Man"  width="75" height="104.3" x="-37.5" y="-52.1" transform="matrix(0.1517 0 0 -0.1517 7.3367 8.0908)" style="overflow:visible;"/>
</svg>
