<?xml version="1.0" encoding="utf-8"?>
<!-- Generator: Adobe Illustrator 27.3.1, SVG Export Plug-In . SVG Version: 6.00 Build 0)  -->
<svg version="1.1" id="Layer_1" xmlns="http://www.w3.org/2000/svg" xmlns:xlink="http://www.w3.org/1999/xlink" x="0px" y="0px"
	 viewBox="0 0 24 24" style="enable-background:new 0 0 24 24;" xml:space="preserve">
<style type="text/css">
	.st0{fill:url(#SVGID_1_);}
	.st1{fill:#8C98A0;}
	.st2{fill:url(#SVGID_00000123431000480167601230000018056162977286578104_);}
	.st3{fill:url(#SVGID_00000048499367243942763660000008852958836675382975_);}
</style>
<symbol  id="Bullet_7_-_Grey" viewBox="-18.7 -20.9 37.5 41.9">
	<g>
		
			<radialGradient id="SVGID_1_" cx="306.9924" cy="-16253.4707" r="33.5063" gradientTransform="matrix(0 -1 1 0 16273.4082 310.4995)" gradientUnits="userSpaceOnUse">
			<stop  offset="0" style="stop-color:#FFFFFF"/>
			<stop  offset="1" style="stop-color:#B1BFC7"/>
		</radialGradient>
		<path class="st0" d="M-14.9-20.4c-2.1,0-3.3,1.7-3.3,4.4v32c0,2.7,1.3,4.4,3.3,4.4c0.9,0,1.8-0.3,2.8-0.9l27.7-16
			c1.7-1,2.6-2.2,2.6-3.6c0-1.3-0.9-2.6-2.6-3.6l-27.7-16C-13.1-20.1-14-20.4-14.9-20.4z"/>
		<g>
			<path class="st1" d="M-14.9,19.9L-14.9,19.9c0.8,0,1.7-0.3,2.6-0.8l27.7-16c1.5-0.9,2.4-2,2.4-3.1c0-1.1-0.8-2.3-2.4-3.1
				l-27.7-16c-0.9-0.5-1.8-0.8-2.6-0.8c-1.8,0-2.8,1.5-2.8,3.9v32C-17.7,18.5-16.7,19.9-14.9,19.9 M-14.9,20.9
				c-2.3,0-3.9-1.8-3.9-4.9v-32c0-3.1,1.6-4.9,3.8-4.9c0.9,0,2,0.3,3.1,0.9L15.9-4c3.8,2.2,3.8,5.8,0,8l-27.7,16
				C-12.9,20.6-14,20.9-14.9,20.9L-14.9,20.9z"/>
		</g>
	</g>
	<g>
		
			<linearGradient id="SVGID_00000042708965995605009920000006839051693533238158_" gradientUnits="userSpaceOnUse" x1="32.1924" y1="-0.122" x2="-36.353" y2="-16.9679">
			<stop  offset="0" style="stop-color:#FFFFFF"/>
			<stop  offset="1" style="stop-color:#000000"/>
		</linearGradient>
		<path style="fill:url(#SVGID_00000042708965995605009920000006839051693533238158_);" d="M14.9,2.3l-0.8,0.5
			C14.7,2.2,15,1.7,15,1.1c0-0.8-0.7-1.6-1.9-2.3l-27.9-16.1c-0.6-0.3-1.1-0.5-1.6-0.6c0.3-0.6,0.7-1,1.5-1c0.6,0,1.3,0.2,2.1,0.7
			l27.7,16c1.2,0.7,1.9,1.5,1.9,2.3S16.1,1.6,14.9,2.3z"/>
	</g>
	<g>
		
			<linearGradient id="SVGID_00000084511706674661716150000012342807055365065893_" gradientUnits="userSpaceOnUse" x1="-18.4038" y1="18.2127" x2="1.5947" y2="-6.7856">
			<stop  offset="0" style="stop-color:#FFFFFF"/>
			<stop  offset="1" style="stop-color:#000000"/>
		</linearGradient>
		<path style="fill:url(#SVGID_00000084511706674661716150000012342807055365065893_);" d="M0.6,4.5c2.5,0.8,5,1.3,7.4,1.7
			l-20.9,12.1c-0.8,0.4-1.5,0.7-2.1,0.7c-1.7,0-1.8-2.1-1.8-2.9V-4.9C-12.5-1.1-6.5,2.3,0.6,4.5z"/>
	</g>
</symbol>
<use xlink:href="#Bullet_7_-_Grey"  width="37.5" height="41.9" x="-18.7" y="-20.9" transform="matrix(0.6185 0 0 -0.5 12.4032 11.5958)" style="overflow:visible;"/>
</svg>
